<?xml version="1.0" encoding="utf-8"?>
<!-- Svg Vector Icons : http://www.onlinewebfonts.com/icon -->
<!DOCTYPE svg PUBLIC "-//W3C//DTD SVG 1.1//EN" "http://www.w3.org/Graphics/SVG/1.1/DTD/svg11.dtd">
<svg version="1.1" xmlns="http://www.w3.org/2000/svg" xmlns:xlink="http://www.w3.org/1999/xlink" x="0px" y="0px" viewBox="0 0 1000 1000" enable-background="new 0 0 1000 1000" xml:space="preserve">
<metadata> Svg Vector Icons : http://www.onlinewebfonts.com/icon </metadata>
<g><path d="M767.3,388.6c0-12.3-10-22.3-22.3-22.3H567.8L677.1,39.3l-0.3-0.1c0.7-2.2,1.4-4.5,1.4-6.9c0-12.3-10-22.3-22.3-22.3H433.2c-9.8,0-17.9,6.5-20.9,15.3l-0.3-0.1L233.9,559.8l0.3,0.1c-0.7,2.2-1.4,4.5-1.4,7c0,12.3,10,22.3,22.3,22.3h197.9L411,965.2l0.3,0c-0.1,0.8-0.5,1.6-0.5,2.4c0,12.3,10,22.3,22.3,22.3c9,0,16.4-5.5,19.8-13.1l0.4,0.2L765.2,398l-0.1,0C766.5,395.1,767.3,392,767.3,388.6 M468,856.2l31.9-286.9h-0.3c0.1-0.9,0.5-1.6,0.5-2.4c0-12.3-9.9-22.3-22.3-22.3H285.9l163.3-490H625l-109.3,327l0.3,0.1c-0.7,2.2-1.4,4.5-1.4,7c0,12.3,10,22.3,22.3,22.3h170.9L468,856.2z"/></g>
</svg>